<?xml version="1.0" encoding="utf-8"?>
<!-- Generator: Adobe Illustrator 16.0.0, SVG Export Plug-In . SVG Version: 6.00 Build 0)  -->
<!DOCTYPE svg PUBLIC "-//W3C//DTD SVG 1.1//EN" "http://www.w3.org/Graphics/SVG/1.1/DTD/svg11.dtd">
<svg version="1.1" id="logo" xmlns="http://www.w3.org/2000/svg" xmlns:xlink="http://www.w3.org/1999/xlink" x="0px" y="0px"
	 width="56px" height="28px" viewBox="0 0 56 28" enable-background="new 0 0 56 28" xml:space="preserve">
<g id="glow" display="none">
	
		<radialGradient id="SVGID_1_" cx="18.0254" cy="13.7451" r="16.9416" gradientTransform="matrix(1.0799 0 0 0.9005 -2.8161 1.6223)" gradientUnits="userSpaceOnUse">
		<stop  offset="0" style="stop-color:#E80064;stop-opacity:0.15"/>
		<stop  offset="0.8895" style="stop-color:#E80064;stop-opacity:0.0102"/>
		<stop  offset="0.9543" style="stop-color:#E80064;stop-opacity:0"/>
	</radialGradient>
	<path display="inline" fill="url(#SVGID_1_)" d="M34.001,13.567C34.001,21.921,34.829,30,16.688,30
		C-1.975,30-0.558,21.921-0.558,13.567C-0.558,5.213-3.461-2,16.249-2C33.291-2,34.001,5.213,34.001,13.567z"/>
</g>
<g id="Layer_3">
	<g>
		<g>
			<path fill="#9E449B" d="M2,21.103c0,2.53,1.4,4.582,4.326,4.582l22.212-1.491c2.926,0,5.462-2.125,5.462-4.656V6.515
				c0-2.53-2.625-4.477-4.375-4.682L6.375,0.292C3.45,0.292,2,2.075,2,4.606V21.103z"/>
		</g>
	</g>
</g>
<g>
	<g>
		<path fill="#FFFFFF" d="M16.136,8.451c0-0.273-0.225-0.503-0.5-0.511c-1.987-0.056-2.981-0.084-4.969-0.141
			c-0.275-0.008-0.5,0.216-0.5,0.499c0,2.045,0,3.068,0,5.113c0,0.283,0.225,0.514,0.5,0.513c1.225-0.006,1.837-0.011,3.062-0.017
			c0.275-0.001,0.5,0.226,0.5,0.502c0,0.419,0,0.629,0,1.049c0,0.276-0.226,0.506-0.5,0.511c-1.225,0.02-1.837,0.031-3.062,0.051
			c-0.275,0.005-0.499,0.237-0.499,0.521c0,0.455,0,0.682,0,1.137c0,0.283,0.224,0.509,0.499,0.501
			c1.988-0.055,2.981-0.083,4.969-0.139c0.275-0.008,0.5-0.237,0.5-0.512c0-2.017,0-3.024,0-5.041c0-0.273-0.225-0.5-0.5-0.502
			c-1.225-0.007-1.838-0.01-3.063-0.017c-0.275-0.001-0.499-0.231-0.499-0.511c0-0.438,0-0.658,0-1.095c0-0.28,0.225-0.505,0.5-0.5
			c1.225,0.021,1.838,0.033,3.063,0.054c0.275,0.005,0.5-0.215,0.5-0.488C16.136,9.038,16.136,8.841,16.136,8.451z"/>
		<path fill="#FFFFFF" d="M18.667,8.026c-0.275-0.008-0.5-0.236-0.5-0.507c0-0.398,0-0.596,0-0.994c0-0.271-0.226-0.501-0.501-0.512
			c-3.6-0.143-5.399-0.213-8.999-0.355c-0.275-0.011-0.5,0.214-0.5,0.5c0,5.438,0,8.156,0,13.595c0,0.286,0.225,0.514,0.5,0.503
			c3.6-0.138,5.398-0.208,8.999-0.349c0.275-0.011,0.501-0.241,0.501-0.512c0-0.374,0-0.562,0-0.936
			c0-0.271,0.224-0.495,0.499-0.503c0.4-0.011,0.601-0.017,1.001-0.027c0.275-0.008,0.501,0.202,0.501,0.47
			c0,1.164-0.001,1.748-0.001,2.912c0,0.268-0.225,0.498-0.5,0.512c-5.201,0.259-7.8,0.391-13,0.649c-0.275,0.014-0.5-0.211-0.5-0.5
			c0-7.147,0-10.723,0-17.871c0-0.289,0.225-0.513,0.5-0.499c5.2,0.26,7.799,0.39,13,0.65c0.275,0.014,0.5,0.243,0.5,0.51
			c0,1.127,0,1.692,0,2.82c0,0.267-0.225,0.481-0.5,0.473C19.267,8.044,19.067,8.037,18.667,8.026z"/>
		<path fill="#FFFFFF" d="M20.167,10.51c0-0.267-0.225-0.489-0.5-0.494c-0.4-0.007-0.6-0.011-1-0.018
			c-0.275-0.005-0.5,0.212-0.5,0.482c0,1.969,0,2.954,0,4.923c0,0.271,0.224,0.488,0.499,0.484c0.4-0.006,0.601-0.01,1.001-0.016
			c0.275-0.004,0.498-0.226,0.498-0.493c0-0.406,0.002-0.61,0.002-1.016c0-0.267,0.224-0.487,0.499-0.488
			c0.4-0.002,0.602-0.002,1.001-0.004c0.275-0.001,0.502,0.212,0.502,0.477c0,2.747,0,4.122,0,6.869
			c0,0.265,0.221,0.469,0.496,0.455c0.412-0.021,0.619-0.031,1.031-0.052c0.275-0.014,0.502-0.237,0.502-0.499
			c0-6.467,0-9.702,0-16.168c0-0.261-0.227-0.485-0.502-0.499c-0.412-0.021-0.619-0.031-1.031-0.051
			c-0.275-0.014-0.496,0.191-0.496,0.455c0,2.662,0,3.994,0,6.656c0,0.264-0.227,0.479-0.502,0.477
			c-0.399-0.002-0.601-0.003-1.001-0.005c-0.275-0.002-0.499-0.222-0.499-0.489C20.167,11.102,20.167,10.904,20.167,10.51z"/>
	</g>
</g>
<g>
	<path fill="#FFFFFF" d="M26.529,5.291c-0.314-0.451-0.571-0.37-0.571,0.18v15.197c0,0.55,0.256,0.63,0.567,0.177l4.824-6.997
		c0.312-0.453,0.311-1.192-0.004-1.644L26.529,5.291z"/>
</g>
<g>
	<g>
		<g>
			<path fill="#9E449B" d="M37.492,19.794c-0.496,0-0.899-0.403-0.899-0.899V6.6c0-0.496,0.403-0.9,0.899-0.9h3.329
				c1.844,0,3.289,0.567,4.295,1.687c0.998,1.109,1.504,2.805,1.504,5.04c0,1.155-0.11,2.193-0.33,3.086
				c-0.222,0.91-0.574,1.69-1.045,2.319c-0.478,0.637-1.094,1.129-1.831,1.463c-0.733,0.333-1.919,0.441-1.969,0.445
				c-0.336,0.03-0.886,0.054-1.224,0.054H37.492z M39.016,7.812c-0.165,0-0.3,0.135-0.3,0.3v9.271c0,0.165,0.135,0.3,0.3,0.3h1.934
				c0.161,0,0.364-0.016,0.605-0.045c0.227-0.027,0.476-0.097,0.737-0.206c0.26-0.106,0.524-0.267,0.786-0.477
				c0.254-0.202,0.485-0.484,0.688-0.841c0.21-0.364,0.386-0.832,0.523-1.388c0.138-0.564,0.208-1.255,0.208-2.055
				c0-0.777-0.066-1.485-0.196-2.103c-0.123-0.593-0.328-1.104-0.61-1.518c-0.277-0.407-0.624-0.708-1.062-0.919
				c-0.424-0.206-1.071-0.267-1.078-0.267c-0.321-0.029-0.848-0.053-1.17-0.053H39.016z"/>
		</g>
		<g>
			<path fill="#9E449B" d="M50.617,20.097c-1.155,0-2.062-0.368-2.695-1.095c-0.63-0.723-0.851-2.413-0.86-2.484
				c-0.043-0.338-0.078-0.809-0.078-1.049c0-0.401,0.395-0.716,0.899-0.716h0.323c0.496,0,0.899,0.39,0.899,0.868
				c0,0.369,0.026,0.715,0.077,1.027c0.047,0.291,0.13,0.545,0.246,0.755c0.107,0.19,0.252,0.334,0.443,0.439
				c0.195,0.107,0.457,0.162,0.777,0.162c0.587,0,0.972-0.169,1.176-0.515c0.188-0.316,0.277-0.87,0.295-1.057
				c0.03-0.32,0.057-0.846,0.057-1.168V6.6c0-0.496,0.403-0.9,0.899-0.9H53.4c0.496,0,0.899,0.404,0.899,0.9v9.531
				c0,0.478-0.06,0.953-0.177,1.416c-0.121,0.476-0.327,0.908-0.613,1.288c-0.291,0.385-0.679,0.694-1.152,0.92
				C51.889,19.981,51.303,20.097,50.617,20.097z"/>
		</g>
	</g>
</g>
</svg>
